<?xml version="1.0" encoding="UTF-8"?>
<!DOCTYPE svg PUBLIC "-//W3C//DTD SVG 1.1//EN" "http://www.w3.org/Graphics/SVG/1.1/DTD/svg11.dtd">
<!-- Creator: CorelDRAW 2021 (64-Bit) -->
<svg xmlns="http://www.w3.org/2000/svg" xml:space="preserve" width="4000px" height="4068px" version="1.1" style="shape-rendering:geometricPrecision; text-rendering:geometricPrecision; image-rendering:optimizeQuality; fill-rule:evenodd; clip-rule:evenodd"
viewBox="0 0 4000 4062.03"
 xmlns:xlink="http://www.w3.org/1999/xlink"
 xmlns:xodm="http://www.corel.com/coreldraw/odm/2003">
 <defs>
  <style type="text/css">
   <![CDATA[
    .fil1 {fill:#AC7B2F}
    .fil0 {fill:#8D612C}
   ]]>
  </style>
 </defs>
 <g id="Layer_x0020_1">
  <metadata id="CorelCorpID_0Corel-Layer"/>
  <g id="_2045071412448">
   <path class="fil0" d="M1839.44 2471.52c413.12,251.56 1344.06,-312.24 1462.95,561.39 -713.05,18.13 -1444.93,1.92 -2160.08,2.14 -367.45,0.13 -596.15,46.95 -814.1,264.1 -175.58,174.93 -346.43,380.05 -326.63,740.67 1733.46,4.96 2993.31,248.51 3759.25,-1004.46 246.72,-403.62 515.66,-1769.35 -382.46,-1396.99 -267.9,111.08 -532.52,260.93 -792.19,385.09l-602.54 282.53c-120.14,57.36 -131.07,34.67 -144.2,165.53z"/>
   <path class="fil1" d="M2157.18 1584.78c-241.27,-98.13 -649.52,-26.76 -951.11,-44.15 -320.76,-18.5 -477.42,-197.65 -513.78,-501.16 620.57,-57.85 1503.22,-7.64 2151.96,-7.27 369.09,0.2 592.93,-40.87 815.38,-257.23 112.56,-109.46 150.11,-130.12 232.23,-291.24 72.03,-141.32 106.91,-274.45 103.43,-456.19 -1409.49,16.59 -2991.21,-322.36 -3754.97,992.16 -238.26,410.06 -521.88,1784.57 367.6,1413.8l1393.71 -667.52c132.14,-59.17 135.81,-34.04 155.55,-181.2z"/>
  </g>
 </g>
</svg>
