<?xml version="1.0" encoding="UTF-8"?>
<!DOCTYPE svg PUBLIC "-//W3C//DTD SVG 1.1//EN" "http://www.w3.org/Graphics/SVG/1.1/DTD/svg11.dtd">
<!-- Creator: CorelDRAW 2021 (64-Bit) -->
<svg xmlns="http://www.w3.org/2000/svg" xml:space="preserve" width="4000px" height="1336px" version="1.1" style="shape-rendering:geometricPrecision; text-rendering:geometricPrecision; image-rendering:optimizeQuality; fill-rule:evenodd; clip-rule:evenodd"
viewBox="0 0 4048.89 1350.46"
 xmlns:xlink="http://www.w3.org/1999/xlink"
 xmlns:xodm="http://www.corel.com/coreldraw/odm/2003">
 <defs>
  <style type="text/css">
   <![CDATA[
    .fil1 {fill:#AC7B2F}
    .fil0 {fill:#8D612C}
    .fil2 {fill:#A9772D;fill-rule:nonzero}
   ]]>
  </style>
 </defs>
 <g id="Layer_x0020_1">
  <metadata id="CorelCorpID_0Corel-Layer"/>
  <path class="fil0" d="M611.54 821.68c137.35,83.63 446.85,-103.81 486.37,186.64 -237.06,6.03 -480.38,0.64 -718.14,0.71 -122.16,0.05 -198.19,15.61 -270.65,87.81 -58.38,58.15 -115.18,126.34 -108.59,246.24 576.3,1.65 995.15,82.62 1249.79,-333.95 82.03,-134.18 171.44,-588.23 -127.15,-464.44 -89.06,36.93 -177.04,86.75 -263.37,128.03l-200.32 93.93c-39.94,19.07 -43.57,11.52 -47.94,55.03z"/>
  <path class="fil1" d="M717.17 526.88c-80.21,-32.63 -215.94,-8.9 -316.2,-14.68 -106.64,-6.15 -158.72,-65.71 -170.81,-166.62 206.31,-19.23 499.76,-2.54 715.44,-2.42 122.71,0.07 197.12,-13.58 271.08,-85.51 37.42,-36.39 49.9,-43.26 77.21,-96.83 23.94,-46.98 35.54,-91.24 34.38,-151.66 -468.6,5.51 -994.45,-107.18 -1248.37,329.85 -79.22,136.33 -173.51,593.3 122.21,470.03l463.35 -221.92c43.93,-19.68 45.15,-11.32 51.71,-60.24z"/>
  <path class="fil2" d="M1618.31 628.38l-118.75 0c-22.94,0 -41.51,-7.03 -55.55,-21.07 -14.2,-14.04 -21.38,-32.61 -21.38,-55.86l0 -89.1 91.44 0 0 74.12 89.25 0 0.48 -166.5 -104.24 0c-22.94,0 -41.35,-7.02 -55.4,-20.91 -14.04,-14.04 -21.06,-32.6 -21.06,-55.86l0 -197.08c0,-23.09 7.02,-41.66 20.91,-55.55 13.89,-13.73 32.14,-20.75 55.08,-20.75l118.74 0c22.63,0 40.89,7.02 54.93,21.07 14.05,14.04 21.23,32.61 21.54,55.7l-0.47 88.79 -90.97 0 0 -74.12 -89.26 0 0.94 166.81 103.77 0c22.93,0 41.19,7.02 54.61,21.06 13.57,14.05 20.75,32.62 21.38,55.87l0 196.45c-0.63,23.25 -7.81,41.82 -21.54,55.86 -13.73,14.04 -31.83,21.07 -54.45,21.07z"/>
  <path id="_1" class="fil2" d="M2011.06 628.38l-90.51 0 -0.46 -44.01 -89.26 0 0.47 44.01 -91.29 0 0.32 -532.26c0,-23.09 7.02,-41.66 20.91,-55.55 13.89,-13.73 32.14,-20.75 55.08,-20.75l118.74 0c22.63,0 40.89,7.02 54.93,21.07 14.05,14.04 21.22,32.61 21.53,55.7l-0.46 531.79zm-90.97 -135.92l0 -381.2 -88.79 0 0 381.2 88.79 0z"/>
  <polygon id="_2" class="fil2" points="2525.68,628.38 2433.93,628.38 2433.93,310.06 2332.35,628.38 2250.58,628.38 2149,310.06 2149,628.38 2057.56,628.38 2057.24,19.82 2152.27,19.82 2291.31,455.48 2429.71,19.82 2525.36,19.82 "/>
  <polygon id="_3" class="fil2" points="3075.72,628.38 2804.05,628.38 2803.74,569.4 2966.03,111.26 2803.74,111.26 2803.74,19.82 3075.25,19.82 3075.25,77.4 2912.04,536.47 3075.25,536.47 "/>
  <path id="_4" class="fil2" d="M3317.43 628.38l-118.75 0c-22.94,0 -41.51,-7.03 -55.55,-21.07 -14.2,-14.04 -21.38,-32.61 -21.38,-55.86l-0.31 -531.63 91.28 0 0.47 516.65 89.26 0 -0.47 -516.65 90.97 0 0.47 531.63c-0.62,23.25 -7.8,41.82 -21.53,55.86 -13.74,14.04 -31.84,21.07 -54.46,21.07z"/>
  <path id="_5" class="fil2" d="M3635.13 628.38l-118.76 0c-22.93,0 -41.5,-7.03 -55.55,-21.07 -14.19,-14.04 -21.37,-32.61 -21.37,-55.86l0.46 -455.33c0,-23.09 7.03,-41.66 20.91,-55.55 13.89,-13.73 32.15,-20.75 55.09,-20.75l118.74 0c22.63,0 40.89,7.02 54.93,21.07 14.05,14.04 21.23,32.61 21.54,55.7l0 134.51 -90.98 0 -0.46 -119.84 -88.79 0 0 425.21 89.25 0 -0.46 -90.04 -23.41 0 0 -91.43 114.38 0 0.47 196.45c-0.63,23.25 -7.81,41.82 -21.54,55.86 -13.73,14.04 -31.83,21.07 -54.45,21.07z"/>
  <path id="_6" class="fil2" d="M4027.88 628.38l-90.51 0 -0.46 -44.01 -89.26 0 0.47 44.01 -91.29 0 0.31 -532.26c0,-23.09 7.03,-41.66 20.91,-55.55 13.89,-13.73 32.15,-20.75 55.09,-20.75l118.74 0c22.63,0 40.89,7.02 54.93,21.07 14.05,14.04 21.22,32.61 21.53,55.7l-0.46 531.79zm-90.97 -135.92l0 -381.2 -88.79 0 0 381.2 88.79 0z"/>
  <path class="fil2" d="M1639.3 1021.36l-62.87 0 -24.89 -65.62 -115.6 0 -23.95 65.62 -61.72 0 111.9 -288.23 61.66 0 115.47 288.23zm-106.68 -114.33l-40.05 -106.67 -38.92 106.67 78.97 0z"/>
  <path id="_1_0" class="fil2" d="M1728.5 1021.36l0 -288.23 93.32 0c35.36,0 58.37,1.41 69.11,4.3 16.5,4.36 30.32,13.75 41.46,28.24 11.14,14.49 16.71,33.21 16.71,56.16 0,17.71 -3.22,32.54 -9.6,44.61 -6.44,12.08 -14.56,21.54 -24.42,28.45 -9.87,6.84 -19.92,11.4 -30.12,13.62 -13.89,2.75 -33.95,4.16 -60.25,4.16l-37.84 0 0 108.69 -58.37 0zm58.37 -239.52l0 82.12 31.73 0c22.88,0 38.11,-1.54 45.82,-4.56 7.72,-3.02 13.76,-7.72 18.12,-14.23 4.36,-6.44 6.58,-13.88 6.58,-22.47 0,-10.53 -3.09,-19.19 -9.2,-26.03 -6.17,-6.85 -13.88,-11.14 -23.34,-12.88 -6.92,-1.28 -20.8,-1.95 -41.74,-1.95l-27.97 0z"/>
  <path id="_2_1" class="fil2" d="M2055.14 1021.36l0 -288.23 93.32 0c35.36,0 58.38,1.41 69.11,4.3 16.5,4.36 30.33,13.75 41.46,28.24 11.14,14.49 16.71,33.21 16.71,56.16 0,17.71 -3.22,32.54 -9.6,44.61 -6.44,12.08 -14.56,21.54 -24.42,28.45 -9.86,6.84 -19.92,11.4 -30.12,13.62 -13.89,2.75 -33.95,4.16 -60.25,4.16l-37.84 0 0 108.69 -58.37 0zm58.37 -239.52l0 82.12 31.73 0c22.88,0 38.11,-1.54 45.83,-4.56 7.71,-3.02 13.75,-7.72 18.11,-14.23 4.36,-6.44 6.58,-13.88 6.58,-22.47 0,-10.53 -3.09,-19.19 -9.2,-26.03 -6.17,-6.85 -13.88,-11.14 -23.34,-12.88 -6.91,-1.28 -20.8,-1.95 -41.73,-1.95l-27.98 0z"/>
  <path id="_3_2" class="fil2" d="M2471.08 927.97l56.76 -5.64c3.42,18.99 10.26,32.88 20.66,41.8 10.4,8.92 24.42,13.35 42.07,13.35 18.65,0 32.74,-3.96 42.2,-11.87 9.46,-7.92 14.23,-17.18 14.23,-27.78 0,-6.84 -2.02,-12.62 -5.98,-17.44 -3.96,-4.77 -10.93,-8.93 -20.86,-12.42 -6.78,-2.41 -22.21,-6.57 -46.36,-12.61 -31.06,-7.78 -52.87,-17.31 -65.42,-28.65 -17.64,-15.9 -26.43,-35.29 -26.43,-58.17 0,-14.69 4.16,-28.51 12.41,-41.33 8.32,-12.81 20.26,-22.54 35.9,-29.25 15.63,-6.7 34.41,-10.06 56.55,-10.06 36.03,0 63.21,7.98 81.39,24.02 18.24,16.03 27.77,37.37 28.71,64.14l-58.37 2.01c-2.48,-14.9 -7.78,-25.56 -15.9,-32.07 -8.12,-6.51 -20.33,-9.79 -36.56,-9.79 -16.78,0 -29.93,3.49 -39.39,10.46 -6.1,4.5 -9.19,10.47 -9.19,17.98 0,6.84 2.89,12.68 8.66,17.51 7.31,6.24 25.09,12.68 53.34,19.39 28.24,6.64 49.1,13.62 62.59,20.73 13.55,7.18 24.15,16.91 31.8,29.32 7.65,12.41 11.47,27.71 11.47,45.89 0,16.51 -4.56,32.01 -13.75,46.43 -9.19,14.43 -22.14,25.16 -38.91,32.14 -16.78,7.04 -37.71,10.53 -62.73,10.53 -36.43,0 -64.41,-8.38 -83.93,-25.22 -19.53,-16.78 -31.14,-41.27 -34.96,-73.4z"/>
  <polygon id="_4_3" class="fil2" points="2877.83,1021.36 2877.83,781.84 2792.49,781.84 2792.49,733.13 3021.14,733.13 3021.14,781.84 2936.2,781.84 2936.2,1021.36 "/>
  <path id="_5_4" class="fil2" d="M3097.72 878.99c0,-29.39 4.43,-54.08 13.22,-74.07 6.51,-14.69 15.5,-27.91 26.84,-39.59 11.34,-11.67 23.75,-20.32 37.23,-26.03 17.99,-7.58 38.71,-11.4 62.2,-11.4 42.53,0 76.48,13.21 102.05,39.58 25.49,26.44 38.24,63.13 38.24,110.17 0,46.63 -12.68,83.12 -37.98,109.42 -25.29,26.37 -59.17,39.52 -101.51,39.52 -42.87,0 -77.02,-13.08 -102.31,-39.32 -25.3,-26.16 -37.98,-62.26 -37.98,-108.28zm59.98 -1.95c0,32.68 7.58,57.43 22.68,74.34 15.1,16.84 34.28,25.29 57.5,25.29 23.28,0 42.33,-8.38 57.3,-25.09 14.89,-16.77 22.34,-41.86 22.34,-75.34 0,-33.08 -7.25,-57.76 -21.81,-74.01 -14.49,-16.29 -33.75,-24.42 -57.83,-24.42 -24.02,0 -43.41,8.26 -58.1,24.7 -14.7,16.5 -22.08,41.32 -22.08,74.53z"/>
  <path id="_6_5" class="fil2" d="M3481.06 1021.36l0 -288.23 122.58 0c30.79,0 53.2,2.62 67.16,7.79 14.02,5.16 25.15,14.35 33.54,27.57 8.39,13.29 12.61,28.38 12.61,45.42 0,21.67 -6.3,39.52 -18.98,53.61 -12.68,14.09 -31.6,22.94 -56.83,26.63 12.54,7.32 22.87,15.36 31,24.16 8.18,8.78 19.18,24.42 33,46.82l35.16 56.23 -69.57 0 -41.73 -62.93c-14.96,-22.34 -25.23,-36.44 -30.8,-42.27 -5.5,-5.77 -11.34,-9.8 -17.51,-11.95 -6.24,-2.14 -16.03,-3.22 -29.45,-3.22l-11.81 0 0 120.37 -58.37 0zm58.37 -166.25l43.07 0c27.91,0 45.29,-1.21 52.26,-3.56 6.92,-2.35 12.42,-6.44 16.31,-12.21 3.96,-5.77 5.9,-13.02 5.9,-21.67 0,-9.73 -2.61,-17.52 -7.78,-23.55 -5.17,-5.97 -12.48,-9.73 -21.87,-11.27 -4.76,-0.68 -18.92,-1.01 -42.47,-1.01l-45.42 0 0 73.27z"/>
  <polygon id="_7" class="fil2" points="3829.91,1021.36 3829.91,733.13 4043.26,733.13 4043.26,781.84 3888.27,781.84 3888.27,845.85 4032.39,845.85 4032.39,894.55 3888.27,894.55 3888.27,972.65 4048.89,972.65 4048.89,1021.36 "/>
 </g>
</svg>
